<?xml version="1.0" encoding="utf-8"?>
<!-- Generator: Adobe Illustrator 22.1.0, SVG Export Plug-In . SVG Version: 6.00 Build 0)  -->
<svg version="1.1" id="Layer_1" xmlns="http://www.w3.org/2000/svg" xmlns:xlink="http://www.w3.org/1999/xlink" x="0px" y="0px"
	 viewBox="0 0 200 90.5" style="enable-background:new 0 0 200 90.5;" xml:space="preserve">
<style type="text/css">
	.st0{fill:#e4067e;}
	.st1{fill:#342b60;}
</style>
<g>
	<path class="st0" d="M43.6,32.5V18.2h-5.2V13h16.3v5.1h-5.2v14.3H43.6z"/>
	<path class="st0" d="M68,32.5l-0.7-2.3h-7l-0.7,2.3h-6.7L60.1,13h7.4l7.2,19.5H68z M63.8,18.8l-1.9,6.3h3.9L63.8,18.8z"/>
	<path class="st0" d="M75.8,32.5V13h5.9v14.3H89v5.1H75.8z"/>
	<path class="st0" d="M43.6,54.4V40.1h-5.2v-5.1h16.3v5.1h-5.2v14.3H43.6z"/>
	<path class="st0" d="M56.8,54.4V34.9h14.8v5.1h-8.9V42h8.7v5.1h-8.7v2.1h8.9v5.1H56.8z"/>
	<path class="st0" d="M73.1,44.7c0-6,4.6-10.1,10.7-10.1c5.1,0,7.7,3,8.8,5.7l-5.1,2.4c-0.5-1.5-2-2.8-3.8-2.8
		c-2.8,0-4.7,2.2-4.7,4.9c0,2.7,1.9,4.9,4.7,4.9c1.8,0,3.3-1.3,3.8-2.8l5.1,2.3c-1.1,2.6-3.7,5.7-8.8,5.7
		C77.8,54.7,73.1,50.6,73.1,44.7z"/>
	<path class="st0" d="M107.4,54.4v-7.4h-7v7.4h-5.9V34.9h5.9v6.9h7v-6.9h5.9v19.5H107.4z"/>
</g>
<g>
	<path class="st1" d="M39.4,76.3V56.8h14.8v5.1h-8.9v1.9H54V69h-8.7v2.1h8.9v5.1H39.4z"/>
	<path class="st1" d="M56.1,71.4V67h7v4.4H56.1z"/>
	<path class="st1" d="M64.1,73.5l3.1-4.4c1.5,1.4,3.6,2.5,6.3,2.5c1.1,0,2.2-0.3,2.2-1.1c0-1.9-10.9,0-10.9-7.6
		c0-3.3,2.7-6.5,8.1-6.5c3.2,0,6,0.9,8.3,2.7l-3.2,4.2c-1.7-1.3-3.9-1.9-5.7-1.9c-1.2,0-1.5,0.4-1.5,0.9c0,1.8,10.8,0.3,10.8,7.5
		c0,4.3-3.2,6.8-8.4,6.8C69,76.6,66.2,75.4,64.1,73.5z"/>
	<path class="st1" d="M83.5,76.3V56.8h10.4c4.6,0,7,3,7,6.7c0,3.6-2.5,6.7-7,6.7h-4.5v6.1H83.5z M94.9,63.5c0-1.1-0.8-1.5-1.8-1.5
		h-3.7V65h3.7C94.1,65,94.9,64.5,94.9,63.5z"/>
	<path class="st1" d="M101.7,66.6c0-6,4.6-10.1,10.7-10.1c6,0,10.7,4.1,10.7,10.1c0,6-4.6,10.1-10.7,10.1
		C106.4,76.6,101.7,72.5,101.7,66.6z M117.1,66.6c0-2.7-1.8-4.9-4.7-4.9c-2.8,0-4.7,2.2-4.7,4.9c0,2.7,1.8,4.9,4.7,4.9
		C115.2,71.4,117.1,69.3,117.1,66.6z"/>
	<path class="st1" d="M135.9,76.3l-2.7-6.1H131v6.1h-5.9V56.8h10.4c4.6,0,7,3,7,6.7c0,3.4-2,5.1-3.5,5.9l3.5,6.9H135.9z M136.6,63.5
		c0-1.1-0.9-1.5-1.9-1.5H131V65h3.6C135.6,65,136.6,64.5,136.6,63.5z"/>
	<path class="st1" d="M148.8,76.3V61.9h-5.2v-5.1h16.3v5.1h-5.2v14.3H148.8z"/>
</g>
</svg>
